<svg width="213" height="213" viewBox="0 0 213 213" fill="none" xmlns="http://www.w3.org/2000/svg">
<path fill-rule="evenodd" clip-rule="evenodd" d="M64.5036 41.3398C92.4516 38.9127 120.557 38.9127 148.505 41.3398L161.907 42.5113C168.136 43.0568 174.001 45.6815 178.558 49.9634C183.115 54.2453 186.1 59.9355 187.032 66.1188C191.057 92.8891 191.057 120.111 187.032 146.881C186.671 149.23 186.044 151.461 185.15 153.573C184.565 154.966 182.754 155.179 181.725 154.061L142.488 110.893C141.621 109.939 140.494 109.257 139.246 108.931C137.999 108.605 136.683 108.648 135.459 109.056L112.997 116.547L80.4165 79.8928C79.8138 79.2147 79.0789 78.667 78.2569 78.2833C77.4349 77.8996 76.5432 77.6879 75.6364 77.6613C74.7297 77.6347 73.827 77.7937 72.984 78.1286C72.1409 78.4635 71.3752 78.9672 70.7338 79.6088L27.1221 123.221C26.8258 123.525 26.4471 123.737 26.0324 123.829C25.6177 123.921 25.1851 123.891 24.7875 123.741C24.3899 123.591 24.0446 123.329 23.7941 122.986C23.5435 122.643 23.3985 122.234 23.3768 121.809C22.3273 103.203 23.1957 84.5383 25.9683 66.1099C26.9004 59.9266 29.885 54.2364 34.4421 49.9546C38.9993 45.6727 44.8641 43.0479 51.0935 42.5024L64.5036 41.3398ZM124.25 79.875C124.25 76.3443 125.653 72.9583 128.149 70.4617C130.646 67.9651 134.032 66.5625 137.563 66.5625C141.093 66.5625 144.479 67.9651 146.976 70.4617C149.473 72.9583 150.875 76.3443 150.875 79.875C150.875 83.4057 149.473 86.7918 146.976 89.2884C144.479 91.785 141.093 93.1875 137.563 93.1875C134.032 93.1875 130.646 91.785 128.149 89.2884C125.653 86.7918 124.25 83.4057 124.25 79.875Z" fill="#222222"/>
<path d="M26.279 142.888C26.0393 143.13 25.8586 143.424 25.7508 143.747C25.6431 144.07 25.6112 144.414 25.6577 144.751L25.9683 146.881C26.9004 153.065 29.885 158.755 34.4421 163.037C38.9993 167.319 44.8641 169.943 51.0935 170.489L64.4947 171.651C92.451 174.083 120.549 174.083 148.505 171.651L161.907 170.489C165.583 170.178 169.16 169.131 172.424 167.409C173.639 166.779 173.844 165.173 172.921 164.161L136.533 124.135C136.244 123.813 135.868 123.583 135.45 123.473C135.032 123.363 134.591 123.377 134.181 123.513L113.041 130.56C111.805 130.973 110.475 131.014 109.216 130.678C107.957 130.342 106.825 129.643 105.959 128.67L76.7156 95.7701C76.5143 95.5441 76.2688 95.3616 75.9943 95.2339C75.7198 95.1062 75.4221 95.0361 75.1195 95.0278C74.8169 95.0194 74.5158 95.0731 74.2347 95.1856C73.9536 95.298 73.6985 95.4667 73.4851 95.6814L26.279 142.888Z" fill="#222222"/>
</svg>
